<svg id="Layer_1" data-name="Layer 1" xmlns="http://www.w3.org/2000/svg" width="150" height="150" viewBox="0 0 150 150">
  <defs>
    <style>
      .cls-1 {
        fill: #040505;
        stroke: #fff;
      }

      .cls-1, .cls-2 {
        stroke-miterlimit: 10;
        stroke-width: 3px;
      }

      .cls-2 {
        fill: none;
        stroke: #14a2dd;
      }
    </style>
  </defs>
  <rect class="cls-1" width="150" height="150"/>
  <path class="cls-2" d="M58.65,99.53a14.56,14.56,0,0,0-7.9-4.28,31.23,31.23,0,0,0-7.58-.12C36.48,96.43,34,98.72,32,100.82c-5.4,5.68-4.9,11.92,1.72,16.57,9.09,6.38,24.94-5,24.94-11.59V20.16s22.81,34,54.38,10.57v85.63c0,6.57-15.85,18-24.94,11.6-5.73-4-6.88-11.15-2.91-16,2.33-2.81,3.9-4.59,9.65-6.59,0,0,7.66-2.27,11.71-1.19,2.72.72,3.62,1.24,6.49,3.19"/>
</svg>
