<svg id="Layer_1" data-name="Layer 1" xmlns="http://www.w3.org/2000/svg" width="231.16" height="222.82" viewBox="0 0 231.16 222.82">
  <defs>
    <style>
      .cls-1 {
        fill: #040505;
        stroke: #fff;
      }

      .cls-1, .cls-2 {
        stroke-miterlimit: 10;
        stroke-width: 3px;
      }

      .cls-2 {
        fill: none;
        stroke: #14a2dd;
      }
    </style>
  </defs>
  <rect class="cls-1" x="40.03" y="35.65" width="150" height="150"/>
  <path class="cls-2" d="M98.67,135.18a14.56,14.56,0,0,0-7.9-4.28,31,31,0,0,0-7.58-.11C76.5,132.08,74,134.37,72,136.48c-5.4,5.67-4.9,11.91,1.73,16.57,9.08,6.37,24.93-5,24.93-11.6V55.82s22.82,34,54.39,10.56V152c0,6.57-15.85,18-24.94,11.59-5.73-4-6.89-11.14-2.91-16,2.32-2.81,3.89-4.59,9.65-6.59,0,0,7.65-2.27,11.71-1.19,2.72.72,3.61,1.24,6.49,3.19"/>
</svg>
