<svg id="Layer_1" data-name="Layer 1" xmlns="http://www.w3.org/2000/svg" width="803.94" height="488.84" viewBox="0 0 803.94 488.84">
  <defs>
    <style>
      .cls-1, .cls-13, .cls-5, .cls-9 {
        fill: none;
      }

      .cls-1, .cls-3 {
        stroke: #020202;
      }

      .cls-1, .cls-10, .cls-11, .cls-12, .cls-13, .cls-3, .cls-4, .cls-5, .cls-6, .cls-7, .cls-8, .cls-9 {
        stroke-miterlimit: 10;
      }

      .cls-1, .cls-3, .cls-4 {
        stroke-width: 7px;
      }

      .cls-2, .cls-3 {
        fill: #b2509e;
      }

      .cls-10, .cls-4 {
        fill: #5dc6cc;
      }

      .cls-10, .cls-11, .cls-12, .cls-4, .cls-5, .cls-6, .cls-7, .cls-8, .cls-9 {
        stroke: #231f20;
      }

      .cls-5, .cls-6 {
        stroke-width: 3px;
      }

      .cls-11, .cls-6 {
        fill: #020202;
      }

      .cls-7 {
        fill: #f7ec13;
      }

      .cls-10, .cls-11, .cls-12, .cls-7, .cls-8, .cls-9 {
        stroke-width: 2px;
      }

      .cls-8 {
        fill: #5ec6cc;
      }

      .cls-12 {
        fill: #fdfefe;
      }

      .cls-13 {
        stroke: #fff;
        stroke-width: 4px;
      }
    </style>
  </defs>
  <path class="cls-1" d="M177.47,370a4,4,0,0,1-4-4"/>
  <path class="cls-2" d="M647,351.32a181,181,0,0,1-1.75,38.22,2.55,2.55,0,0,0,1.74,3.07c2.65.68,4.16-1.12,5.68-2.94a23.57,23.57,0,0,1,3.58-3.48,55.88,55.88,0,0,1,8.75-5.28c6.37-3.32,12.88-6.61,17.11-12.66,1.42-2-1.4-4.8-3.42-3.42l-21.42,14.68c-1.7,1.16-3.37,2.38-5.1,3.49-.1.07-.52.28-.53.31,0-.14.92.6,1,.46s-.36-.7-.39-.8a6,6,0,0,1-.27-2.3,33.68,33.68,0,0,1,.86-5.38l1.22-6.26,2.77-14.18-4.18,1.1c5.83,7.05,15.61,7.25,23.19,11.33l-.51-3.92c-3.74,3.12-8.6,4.56-12.78,7a20.68,20.68,0,0,0-5.7,4.66,23.5,23.5,0,0,0-2.2,3.37,8.3,8.3,0,0,1-2,2.78l3.67,1.49c-1.4-4.06-.49-8.26.73-12.26A91,91,0,0,1,662,357.92l-4.65-1.26a37.88,37.88,0,0,1-3,19l4.57,1.93A58.17,58.17,0,0,1,665,362.11l-4.66-1.27a31.92,31.92,0,0,1-1,11.26c-.77,2.82,3,4.21,4.57,1.92a89,89,0,0,1,8.35-10.52l-3.93-3a58.64,58.64,0,0,1-7.15,8.8c-2.28,2.31,1.14,5.66,3.54,3.53a38.5,38.5,0,0,1,7.8-5.34l-3.67-2.82a18.84,18.84,0,0,1-3.15,5.48l4.18,2.43A17.16,17.16,0,0,1,674.4,366l-4.18-2.43a7.67,7.67,0,0,1-3.22,3.56c-2.76,1.64-.25,6,2.52,4.32a13.25,13.25,0,0,0,5.52-6.55,2.51,2.51,0,0,0-1.15-2.83,2.59,2.59,0,0,0-3,.39,22.62,22.62,0,0,0-5.85,8.73c-.89,2.3,2.61,4.31,4.17,2.43a25.77,25.77,0,0,0,4.44-7.68c.81-2.18-1.89-3.75-3.67-2.82a43.58,43.58,0,0,0-8.82,6.12l3.54,3.53a66.14,66.14,0,0,0,7.93-9.8c1.56-2.37-2-5.12-3.93-3a97.67,97.67,0,0,0-9.12,11.53l4.57,1.92a36.3,36.3,0,0,0,1.19-12.58c-.19-2.34-3.35-3.55-4.65-1.26a62.81,62.81,0,0,0-6.59,16.68,2.51,2.51,0,0,0,1.45,2.95,2.48,2.48,0,0,0,3.12-1,42.87,42.87,0,0,0,3.67-21.53,2.61,2.61,0,0,0-1.84-2.41,2.5,2.5,0,0,0-2.82,1.15,97.14,97.14,0,0,0-5.48,14.09c-1.39,4.67-2.23,9.76-.6,14.48.47,1.38,2.28,2.52,3.67,1.5,2.45-1.8,3.36-4.37,5.06-6.76a15.35,15.35,0,0,1,5.11-4.22c4.52-2.57,9.45-4.22,13.49-7.6a2.51,2.51,0,0,0-.51-3.92c-3.85-2.08-8.09-3.22-12.22-4.61-3.75-1.25-7.38-2.83-9.95-5.95a2.51,2.51,0,0,0-4.18,1.11l-2.77,14.18-1.36,7a32,32,0,0,0-.91,6.6,8.6,8.6,0,0,0,2.06,5.89c1.87,1.85,4.31,1.05,6.2-.24,4.06-2.76,8.1-5.55,12.15-8.32l13.8-9.46-3.42-3.42c-3.59,5.13-9.61,7.9-15,10.7a67.25,67.25,0,0,0-8.24,4.83,32.14,32.14,0,0,0-3.83,3.16,21.45,21.45,0,0,0-1.59,1.71c-.29.36-.56.73-.85,1.09a5.57,5.57,0,0,1-.52.57c-.23.21,0,.21.56,0l1.75,3.08A187,187,0,0,0,652,351.32c-.19-3.19-5.19-3.22-5,0Z"/>
  <path class="cls-2" d="M213.6,136.69l-6.84-.12c-2.32,0-4.53-.13-6.41,1.45a37.34,37.34,0,0,0-3.41,3.9q-1.91,2.13-4,4.1A61.89,61.89,0,0,1,174.57,158l2.44,4.18c4.22-4.58,9.68-8.14,14.86-11.54l-3-3.93c-3.86,4.36-8.69,7.75-12.55,12.11-1.54,1.73-.09,5,2.43,4.17a48.06,48.06,0,0,1,14.14-2.21c5.12-.16,10.25-.08,15.38-.08l31.87,0,17.92,0c2.76,0,3.47-4.27.67-4.91-17.8-4-35.78,1.21-53.71-.27A53.46,53.46,0,0,1,190.08,152l.59,4.57a25.3,25.3,0,0,0,7.72-6c1.92-2.18,3.69-4.69,6.27-6.15,5.33-3,12.22-.52,17.51,1.31l.66-4.91c-3.88.31-7.77.56-11.65.93a39.66,39.66,0,0,0-11.1,2.33,2.53,2.53,0,0,0-1.79,2.74,2.5,2.5,0,0,0,2.46,2.17l33.59-.54-.67-4.91A222.45,222.45,0,0,1,208,148a2.57,2.57,0,0,0-2.5,2.5A2.52,2.52,0,0,0,208,153l30.6-1.33-.66-4.91c-8.31,2.16-17.22.82-25.29,4.08a2.53,2.53,0,0,0-1.79,2.75,2.47,2.47,0,0,0,2.45,2.16q14.88-.81,29.77-.27v-5a139.31,139.31,0,0,0-24.76,2.88c-3.54.74-7.1,1.86-10.74,1.81s-6.08-2-8.56-4.56l-2.43,4.18,12,3,.67-4.91a51.57,51.57,0,0,1-8.52-.06c-.14,0-.71-.16-.82-.09-.28-.05-.2.12.25.5.24.58.36.7.35.34.21-.19.24-1.22.33-1.55a11.52,11.52,0,0,1,.47-1.36,9,9,0,0,1,.47-.93,3.54,3.54,0,0,1,.19-.33c.26-.37.08-.26-.52.33l-1.27-.34a5.15,5.15,0,0,1,2.65,4.14l1.23-2.16c.41-.18-.11-.14-.2-.4.07.19-.29.16.06-.23a1.88,1.88,0,0,1,.32-.31c1-.75,1.88.62,2.08,1.49l1.75-3.07a23.33,23.33,0,0,1-10.72.82v4.82l12.25-1.67c2.43-.33,2.33-4.4,0-4.82l-7.33-1.33v4.82a10.93,10.93,0,0,1,1.58-.36,9.05,9.05,0,0,0,1.11.08l.14.09.06-.34-.25.6c-.85,2.44.9,4.26,3.24,4.58,4.67.65,9.37,1.15,14.06,1.72v-5l-2.37.13c-3.21.17-3.23,5.17,0,5l2.37-.13a2.5,2.5,0,0,0,0-5l-7.36-.9-3.43-.41-2-.24-.6-.08q-.66-.2.15.12l.65,1.11c-.12.91-.05.95.22.12a3.05,3.05,0,0,0,.19-1A4.47,4.47,0,0,0,210,150a5.19,5.19,0,0,0-1.87-2.66c-2.09-1.61-4.71-1.26-7.1-.64s-2.49,4.36,0,4.82l7.32,1.33V148l-12.25,1.67c-2.42.33-2.36,4.43,0,4.82a28.87,28.87,0,0,0,13.38-.82,2.56,2.56,0,0,0,1.74-3.08c-1.15-5.06-7.75-7.37-11.12-2.92a5.25,5.25,0,0,0,.18,6.71,5.38,5.38,0,0,0,6.39,1.31,2.41,2.41,0,0,0,1.24-2.16,10.91,10.91,0,0,0-3.87-7.65c-1.6-1.28-3.7-1.69-5.33-.21a9.94,9.94,0,0,0-2.29,4c-1,2.86-1.61,7.14,2.33,7.87a42.09,42.09,0,0,0,10.58.31c2.68-.2,3.54-4.19.66-4.91l-12.05-3a2.52,2.52,0,0,0-2.43,4.17c2.77,2.83,5.7,5.24,9.75,5.83s8.09-.38,12-1.27a132.83,132.83,0,0,1,25.81-3.22,2.5,2.5,0,0,0,0-5q-14.88-.54-29.77.27l.67,4.91c8-3.24,17-1.92,25.29-4.08,2.68-.7,2.19-5-.67-4.91L208,148v5a232.44,232.44,0,0,0,27-4.66c2.75-.64,2.15-5-.66-4.91l-33.59.54.66,4.91a36,36,0,0,1,10.21-2.19c3.74-.34,7.48-.59,11.21-.89a2.51,2.51,0,0,0,.67-4.91c-6.44-2.23-13.72-4.29-20.28-1.35-3,1.35-5.23,3.81-7.33,6.27a24.31,24.31,0,0,1-7.74,6.45c-2.12,1.05-1.22,3.86.6,4.57,17.38,6.78,35.7,2.36,53.71,2.27a66.09,66.09,0,0,1,14.91,1.44l.66-4.91-32.36,0c-10.55,0-21.12-.17-31.66.06a55.27,55.27,0,0,0-16.62,2.42l2.44,4.18c3.86-4.35,8.68-7.75,12.55-12.1,1.79-2-.53-5.57-3-3.93-2.78,1.83-5.51,3.71-8.16,5.71a55.39,55.39,0,0,0-7.72,6.62,2.57,2.57,0,0,0-.39,3,2.5,2.5,0,0,0,2.82,1.15A69,69,0,0,0,195,150.93a67.51,67.51,0,0,0,7.62-8c.35-.43.72-1.08,1.23-1.32.79-.37,2.08-.09,2.94-.07l6.84.12c3.22.06,3.22-4.94,0-5Z"/>
  <path class="cls-3" d="M202.23,134.56h479.5a4,4,0,0,1,4,4V370"/>
  <rect class="cls-3" x="159.28" y="162.85" width="485.05" height="237.98" rx="5.56"/>
  <path class="cls-1" d="M236.08,152.51v-70c0-1,1.93-1.72,4.31-1.72h366.8c2.38,0,4.3.77,4.3,1.72v70"/>
  <circle class="cls-4" cx="248.07" cy="302.26" r="69.68"/>
  <circle class="cls-5" cx="248.07" cy="302.26" r="51.25"/>
  <circle class="cls-6" cx="250.08" cy="301.52" r="26.46"/>
  <circle class="cls-4" cx="556.28" cy="302.26" r="69.68"/>
  <circle class="cls-5" cx="556.28" cy="302.26" r="51.25"/>
  <circle class="cls-6" cx="558.29" cy="301.52" r="26.46"/>
  <rect class="cls-7" x="188.91" y="192.66" width="121.57" height="18.19" rx="9.09"/>
  <rect class="cls-7" x="493.07" y="192.66" width="121.57" height="18.19" rx="9.09"/>
  <rect class="cls-8" x="331.1" y="189.38" width="141.07" height="23.62"/>
  <g>
    <line class="cls-9" x1="340.42" y1="201.19" x2="462.69" y2="201.19"/>
    <line class="cls-9" x1="341.43" y1="195.88" x2="341.43" y2="206.49"/>
    <line class="cls-9" x1="348.63" y1="195.88" x2="348.63" y2="206.49"/>
    <line class="cls-9" x1="356.21" y1="195.88" x2="356.21" y2="206.49"/>
    <line class="cls-9" x1="363.92" y1="195.88" x2="363.92" y2="206.49"/>
    <line class="cls-9" x1="371.62" y1="195.88" x2="371.62" y2="206.49"/>
    <line class="cls-9" x1="378.95" y1="195.88" x2="378.95" y2="206.49"/>
    <line class="cls-9" x1="386.53" y1="195.88" x2="386.53" y2="206.49"/>
    <line class="cls-9" x1="394.23" y1="195.88" x2="394.23" y2="206.49"/>
    <line class="cls-9" x1="401.9" y1="195.88" x2="401.9" y2="206.49"/>
    <line class="cls-9" x1="409.52" y1="195.88" x2="409.52" y2="206.49"/>
    <line class="cls-9" x1="416.72" y1="195.88" x2="416.72" y2="206.49"/>
    <line class="cls-9" x1="424.64" y1="195.88" x2="424.64" y2="206.49"/>
    <line class="cls-9" x1="432.35" y1="195.88" x2="432.35" y2="206.49"/>
    <line class="cls-9" x1="439.8" y1="195.88" x2="439.8" y2="206.49"/>
    <line class="cls-9" x1="447.49" y1="195.88" x2="447.49" y2="206.49"/>
    <line class="cls-9" x1="454.89" y1="195.88" x2="454.89" y2="206.49"/>
    <line class="cls-9" x1="462.69" y1="195.88" x2="462.69" y2="206.49"/>
  </g>
  <g id="knob">
    <circle class="cls-7" cx="352.36" cy="244.52" r="11.94"/>
    <line class="cls-7" x1="346.79" y1="255.07" x2="352.36" y2="244.52"/>
  </g>
  <g id="knob-2" data-name="knob">
    <circle class="cls-8" cx="401.36" cy="244.52" r="11.94"/>
    <line class="cls-8" x1="392.59" y1="236.42" x2="401.36" y2="244.52"/>
  </g>
  <g id="knob-3" data-name="knob">
    <circle class="cls-7" cx="450.76" cy="244.52" r="11.94"/>
    <line class="cls-7" x1="460.76" y1="238.01" x2="450.76" y2="244.52"/>
  </g>
  <rect class="cls-7" x="332.21" y="276.41" width="139.33" height="77.1" rx="4.04"/>
  <rect class="cls-10" x="340.93" y="293.46" width="121.39" height="43.07" rx="21.54"/>
  <rect class="cls-11" x="385.76" y="307.74" width="31.2" height="14.53"/>
  <circle class="cls-12" cx="363.15" cy="314.96" r="13.58"/>
  <circle class="cls-12" cx="439.86" cy="315" r="13.58"/>
  <rect class="cls-8" x="344.72" y="364.96" width="113.68" height="19.45"/>
  <line class="cls-9" x1="363.92" y1="364.96" x2="363.92" y2="384.41"/>
  <line class="cls-9" x1="382.61" y1="364.96" x2="382.61" y2="384.41"/>
  <line class="cls-9" x1="401.36" y1="364.96" x2="401.36" y2="384.41"/>
  <line class="cls-9" x1="420.13" y1="364.96" x2="420.13" y2="384.41"/>
  <line class="cls-9" x1="439.2" y1="364.96" x2="439.2" y2="384.41"/>
  <rect class="cls-13" x="1.9" y="2.1" width="800" height="484.84"/>
  <line class="cls-1" x1="162.68" y1="163.71" x2="204.44" y2="133.93"/>
  <line class="cls-1" x1="644.34" y1="162.85" x2="684.25" y2="134.05"/>
  <line class="cls-1" x1="641.55" y1="400.09" x2="687.13" y2="367.15"/>
</svg>
