<svg id="Layer_1" data-name="Layer 1" xmlns="http://www.w3.org/2000/svg" xmlns:xlink="http://www.w3.org/1999/xlink" width="803.94" height="488.84" viewBox="0 0 803.94 488.84">
  <defs>
    <style>
      .cls-1 {
        fill: #f15a29;
        stroke: #020202;
      }

      .cls-1, .cls-10, .cls-11, .cls-12, .cls-2, .cls-3, .cls-4, .cls-5, .cls-6, .cls-7, .cls-8, .cls-9 {
        stroke-miterlimit: 10;
      }

      .cls-1, .cls-2, .cls-3 {
        stroke-width: 7px;
      }

      .cls-12, .cls-2, .cls-4, .cls-8 {
        fill: none;
      }

      .cls-10, .cls-11, .cls-2, .cls-3, .cls-4, .cls-5, .cls-6, .cls-7, .cls-8, .cls-9 {
        stroke: #231f20;
      }

      .cls-3, .cls-9 {
        fill: #5dc6cc;
      }

      .cls-4, .cls-5 {
        stroke-width: 3px;
      }

      .cls-10, .cls-5 {
        fill: #020202;
      }

      .cls-6 {
        fill: #f7ec13;
      }

      .cls-10, .cls-11, .cls-6, .cls-7, .cls-8, .cls-9 {
        stroke-width: 2px;
      }

      .cls-7 {
        fill: #5ec6cc;
      }

      .cls-11 {
        fill: #fdfefe;
      }

      .cls-12 {
        stroke: #fff;
        stroke-width: 4px;
      }
    </style>
  </defs>
  <image width="626" height="626" transform="translate(121.33 -58.39) scale(0.89)" xlink:href="Artboard%2011.png"/>
  <rect class="cls-1" x="159.28" y="162.85" width="485.05" height="237.98" rx="5.56"/>
  <path class="cls-2" d="M255.46,162.85v-70c0-.95,1.51-1.71,3.36-1.71H545c1.85,0,3.36.76,3.36,1.71v70"/>
  <circle class="cls-3" cx="248.07" cy="302.26" r="69.68"/>
  <circle class="cls-4" cx="248.07" cy="302.26" r="51.25"/>
  <circle class="cls-5" cx="250.08" cy="301.52" r="26.46"/>
  <circle class="cls-3" cx="556.28" cy="302.26" r="69.68"/>
  <circle class="cls-4" cx="556.28" cy="302.26" r="51.25"/>
  <circle class="cls-5" cx="558.29" cy="301.52" r="26.46"/>
  <rect class="cls-6" x="188.91" y="192.66" width="121.57" height="18.19" rx="9.09"/>
  <rect class="cls-6" x="493.07" y="192.66" width="121.57" height="18.19" rx="9.09"/>
  <rect class="cls-7" x="331.1" y="189.38" width="141.07" height="23.62"/>
  <g>
    <line class="cls-8" x1="340.42" y1="201.19" x2="462.69" y2="201.19"/>
    <line class="cls-8" x1="341.43" y1="195.88" x2="341.43" y2="206.49"/>
    <line class="cls-8" x1="348.63" y1="195.88" x2="348.63" y2="206.49"/>
    <line class="cls-8" x1="356.21" y1="195.88" x2="356.21" y2="206.49"/>
    <line class="cls-8" x1="363.92" y1="195.88" x2="363.92" y2="206.49"/>
    <line class="cls-8" x1="371.62" y1="195.88" x2="371.62" y2="206.49"/>
    <line class="cls-8" x1="378.95" y1="195.88" x2="378.95" y2="206.49"/>
    <line class="cls-8" x1="386.53" y1="195.88" x2="386.53" y2="206.49"/>
    <line class="cls-8" x1="394.23" y1="195.88" x2="394.23" y2="206.49"/>
    <line class="cls-8" x1="401.9" y1="195.88" x2="401.9" y2="206.49"/>
    <line class="cls-8" x1="409.52" y1="195.88" x2="409.52" y2="206.49"/>
    <line class="cls-8" x1="416.72" y1="195.88" x2="416.72" y2="206.49"/>
    <line class="cls-8" x1="424.64" y1="195.88" x2="424.64" y2="206.49"/>
    <line class="cls-8" x1="432.35" y1="195.88" x2="432.35" y2="206.49"/>
    <line class="cls-8" x1="439.8" y1="195.88" x2="439.8" y2="206.49"/>
    <line class="cls-8" x1="447.49" y1="195.88" x2="447.49" y2="206.49"/>
    <line class="cls-8" x1="454.89" y1="195.88" x2="454.89" y2="206.49"/>
    <line class="cls-8" x1="462.69" y1="195.88" x2="462.69" y2="206.49"/>
  </g>
  <g id="knob">
    <circle class="cls-6" cx="352.36" cy="244.52" r="11.94"/>
    <line class="cls-6" x1="346.79" y1="255.07" x2="352.36" y2="244.52"/>
  </g>
  <g id="knob-2" data-name="knob">
    <circle class="cls-7" cx="401.36" cy="244.52" r="11.94"/>
    <line class="cls-7" x1="392.59" y1="236.42" x2="401.36" y2="244.52"/>
  </g>
  <g id="knob-3" data-name="knob">
    <circle class="cls-6" cx="450.76" cy="244.52" r="11.94"/>
    <line class="cls-6" x1="460.76" y1="238.01" x2="450.76" y2="244.52"/>
  </g>
  <rect class="cls-6" x="332.21" y="276.41" width="139.33" height="77.1" rx="4.04"/>
  <rect class="cls-9" x="340.93" y="293.46" width="121.39" height="43.07" rx="21.54"/>
  <rect class="cls-10" x="385.76" y="307.74" width="31.2" height="14.53"/>
  <circle class="cls-11" cx="363.15" cy="314.96" r="13.58"/>
  <circle class="cls-11" cx="439.86" cy="315" r="13.58"/>
  <rect class="cls-7" x="344.72" y="364.96" width="113.68" height="19.45"/>
  <line class="cls-8" x1="363.92" y1="364.96" x2="363.92" y2="384.41"/>
  <line class="cls-8" x1="382.61" y1="364.96" x2="382.61" y2="384.41"/>
  <line class="cls-8" x1="401.36" y1="364.96" x2="401.36" y2="384.41"/>
  <line class="cls-8" x1="420.13" y1="364.96" x2="420.13" y2="384.41"/>
  <line class="cls-8" x1="439.2" y1="364.96" x2="439.2" y2="384.41"/>
  <rect class="cls-12" x="1.9" y="2.1" width="800" height="484.84"/>
</svg>
