<svg id="Layer_1" data-name="Layer 1" xmlns="http://www.w3.org/2000/svg" width="150" height="150" viewBox="0 0 150 150">
  <defs>
    <style>
      .cls-1 {
        fill: #020202;
        stroke: #fff;
        stroke-miterlimit: 10;
        stroke-width: 3px;
      }

      .cls-2 {
        fill: #ffe609;
      }
    </style>
  </defs>
  <rect class="cls-1" width="150" height="150"/>
  <g id="snare">
    <path class="cls-2" d="M134.63,33.89c2-2.78,1.93-5.38-.63-7.63a24.35,24.35,0,0,0-6.07-3.84c-6.24-2.74-12.91-3.94-19.61-5a206.34,206.34,0,0,0-28-2.17c-1,0-2.09-.09-3.26-.14,0-1.86,0-3.61,0-5.36s-1.3-2.69-2.66-2.24a2.21,2.21,0,0,0-1.5,2.37v5.21L71,15.26c-4.79.21-9.58.35-14.37.63a142.38,142.38,0,0,0-26.06,3.75C25.88,20.79,21.27,22.12,17.3,25c-3.7,2.67-4.36,6.16-1.73,9.23,0,.06,0,.16.09.28L15.3,35c-1.9,2.6-1.79,5.21.51,7.47a17.53,17.53,0,0,0,3.56,2.67,46.3,46.3,0,0,0,13,4.5,176.12,176.12,0,0,0,32,3.73l7.13.3v1.57q0,31,0,62a2.81,2.81,0,0,1-1.16,2.43Q60.29,128,50.21,136.44c-1.5,1.24-1.6,2.32-.33,3.82.68.79,1.43,1.53,2.14,2.29h1.32l14-11.44,4.28-3.54v2.31c0,3,0,6,0,9,0,1.74.75,2.46,2.48,2.56,3.81.21,4.34-.3,4.34-4.14v-9.6c.49.36.82.59,1.14.84l15.62,12.95c.47.39,1,.73,1.47,1.1H98c.69-.73,1.41-1.43,2-2.19,1.39-1.62,1.29-2.66-.34-4Q89.55,128,79.43,119.61a2.53,2.53,0,0,1-1.06-2.2q.06-31.14,0-62.28V53.6H80a204.86,204.86,0,0,0,35.13-3.42c5.35-1.07,10.64-2.37,15.49-5a15.68,15.68,0,0,0,2.73-1.83c3.16-2.68,3.41-5.18,1-8.92C134.4,34.26,134.5,34.07,134.63,33.89ZM75,28.22c1.28.08,1.87-.85,2.2-3.29,4.92.22,9.84.47,14.63,2.16-4.35,3.09-27.52,3.43-33.81.06,4.85-1.76,9.77-2,14.78-2.23C72.93,26.45,73,28.1,75,28.22Zm-54.7-.31c3.58-2.27,7.61-3.37,11.67-4.36A141.07,141.07,0,0,1,56.08,20.1c5-.33,10-.5,15-.73.56,0,1.12,0,1.74,0v1.35c-2.08.14-4.14.17-6.17.46-3,.43-5.89,1-8.79,1.63a9.64,9.64,0,0,0-3.19,1.51c-2.33,1.59-2.37,4.39,0,5.86a16.5,16.5,0,0,0,5.09,2,72.8,72.8,0,0,0,30.37,0,16.43,16.43,0,0,0,4.87-1.89c2.67-1.57,2.63-4.49,0-6.17-2.81-1.81-6.07-2.26-9.29-2.69-2.83-.37-5.68-.53-8.61-.79v-1c3.64,0,7.25-.22,10.83.05,6.88.52,13.76,1.15,20.59,2.07,6.66.9,13.26,2.25,19.38,5.21a14.62,14.62,0,0,1,2.86,1.86c1.34,1.12,1.37,2.09-.07,3.11a23.56,23.56,0,0,1-4.79,2.7c-6.35,2.59-13.06,3.77-19.81,4.73a210.13,210.13,0,0,1-30.38,2c-15.28,0-30.51-.78-45.41-4.59a33.62,33.62,0,0,1-10-3.92C17.5,31,17.48,29.7,20.3,27.91ZM130.83,40a39.63,39.63,0,0,1-7.23,3.67,85.33,85.33,0,0,1-17.47,3.86,234.18,234.18,0,0,1-39.88,1.81c-12.1-.39-24.16-1.31-35.9-4.49A91.23,91.23,0,0,1,20.44,41a4.9,4.9,0,0,1-1.27-.92c-1.28-1.14-1.28-1.8,0-3.09,7.9,3.91,16.38,5.38,24.92,6.56A240.82,240.82,0,0,0,88.6,45.13c10.86-.51,21.66-1.62,32.19-4.46,3.42-.92,6.72-2.26,10.21-3.45C132.08,38.21,132.24,39.12,130.83,40Z"/>
  </g>
</svg>
