<svg id="Layer_1" data-name="Layer 1" xmlns="http://www.w3.org/2000/svg" width="242.15" height="227.37" viewBox="0 0 242.15 227.37">
  <defs>
    <style>
      .cls-1 {
        fill: #020202;
        stroke: #fff;
        stroke-miterlimit: 10;
        stroke-width: 3px;
      }

      .cls-2 {
        fill: #ffe609;
      }
    </style>
  </defs>
  <rect class="cls-1" x="47.47" y="44.16" width="150" height="150"/>
  <g id="snare">
    <path class="cls-2" d="M182.1,78.05c2-2.78,1.93-5.38-.63-7.63a24.35,24.35,0,0,0-6.07-3.84c-6.24-2.74-12.91-3.94-19.61-5a206.45,206.45,0,0,0-28-2.16c-1,0-2.09-.09-3.26-.14,0-1.86,0-3.61,0-5.36s-1.3-2.69-2.66-2.24a2.2,2.2,0,0,0-1.5,2.37V59.3c-.73,0-1.33.09-1.94.11-4.79.21-9.58.36-14.37.64A142.38,142.38,0,0,0,78,63.8c-4.65,1.15-9.26,2.48-13.23,5.35-3.7,2.67-4.36,6.16-1.73,9.22a1.11,1.11,0,0,1,.09.29l-.36.52c-1.9,2.6-1.79,5.21.51,7.47a17.53,17.53,0,0,0,3.56,2.67,46.3,46.3,0,0,0,13,4.5,177,177,0,0,0,32,3.73l7.13.29v1.58q0,31,0,62a2.82,2.82,0,0,1-1.16,2.43q-10.16,8.32-20.23,16.74c-1.5,1.24-1.6,2.32-.33,3.82.68.79,1.43,1.52,2.14,2.28h1.32l14-11.43,4.28-3.55V174c0,3,0,6,0,9,0,1.74.75,2.46,2.48,2.56,3.81.21,4.34-.3,4.34-4.14v-9.6c.49.36.82.59,1.13.84l15.63,13c.47.39,1,.73,1.47,1.09h1.32c.69-.72,1.41-1.42,2.05-2.18,1.39-1.63,1.29-2.66-.34-4Q137,172.13,126.9,163.77a2.54,2.54,0,0,1-1.06-2.21q0-31.12,0-62.27V97.76h1.59a205,205,0,0,0,35.13-3.42c5.35-1.07,10.64-2.37,15.49-5a16.07,16.07,0,0,0,2.73-1.83c3.15-2.68,3.41-5.18,1-8.92C181.87,78.42,182,78.23,182.1,78.05Zm-59.63-5.67c1.28.08,1.87-.85,2.2-3.3,4.92.23,9.84.48,14.63,2.17-4.35,3.09-27.52,3.43-33.81.06,4.85-1.77,9.77-2,14.78-2.23C120.4,70.61,120.43,72.26,122.47,72.38Zm-54.7-.31c3.58-2.27,7.61-3.37,11.67-4.36a140.08,140.08,0,0,1,24.11-3.45c5-.33,10-.5,15-.74.56,0,1.12,0,1.74,0v1.35c-2.08.14-4.14.17-6.17.46-3,.43-5.89,1-8.79,1.63a9.64,9.64,0,0,0-3.19,1.51c-2.33,1.59-2.37,4.39,0,5.86a16.65,16.65,0,0,0,5.09,2,72.75,72.75,0,0,0,30.36,0,16.38,16.38,0,0,0,4.88-1.89c2.67-1.57,2.63-4.49,0-6.17-2.82-1.81-6.07-2.26-9.29-2.69-2.83-.37-5.68-.53-8.61-.79v-1c3.64,0,7.25-.22,10.83,0,6.87.52,13.75,1.15,20.59,2.07,6.66.9,13.26,2.25,19.38,5.21A14.62,14.62,0,0,1,178.29,73c1.34,1.12,1.37,2.08-.07,3.11a23.56,23.56,0,0,1-4.79,2.7c-6.35,2.59-13.07,3.76-19.81,4.73a210.13,210.13,0,0,1-30.38,2c-15.28,0-30.51-.79-45.41-4.59a33.62,33.62,0,0,1-10-3.92C65,75.15,65,73.86,67.77,72.07ZM178.3,84.15a39.63,39.63,0,0,1-7.23,3.67,86,86,0,0,1-17.47,3.86,234.18,234.18,0,0,1-39.88,1.81c-12.1-.39-24.16-1.31-35.9-4.49a91.23,91.23,0,0,1-9.91-3.83,4.9,4.9,0,0,1-1.27-.92c-1.28-1.14-1.29-1.8,0-3.09,7.9,3.91,16.38,5.38,24.92,6.56a241.67,241.67,0,0,0,44.51,1.57c10.85-.51,21.66-1.62,32.19-4.46,3.42-.93,6.72-2.26,10.21-3.45C179.55,82.36,179.71,83.27,178.3,84.15Z"/>
  </g>
</svg>
